<?xml version="1.0" standalone="no"?>
<!DOCTYPE svg PUBLIC "-//W3C//DTD SVG 20010904//EN"
 "http://www.w3.org/TR/2001/REC-SVG-20010904/DTD/svg10.dtd">
<svg version="1.0" xmlns="http://www.w3.org/2000/svg"
 width="1199.000000pt" height="561.000000pt" viewBox="0 0 1199.000000 561.000000"
 preserveAspectRatio="xMidYMid meet">

<g transform="translate(0.000000,561.000000) scale(0.100000,-0.100000)"
fill="#000000" stroke="none">
<path d="M2375 3409 c-847 -1211 -1544 -2207 -1548 -2215 -7 -12 108 -14 805
-14 l813 0 440 630 440 629 580 1 580 1 417 597 418 597 -574 5 -574 5 286
410 287 410 75 2 c721 22 1377 345 2085 1026 l120 116 -1555 0 -1555 0 -1540
-2200z"/>
<path d="M7227 4029 c-609 -870 -1106 -1583 -1104 -1585 5 -5 3869 175 3875
181 3 3 -9 5 -26 5 -89 0 -3307 131 -3310 135 -3 3 1 7 9 9 8 2 802 39 1764
80 963 42 1759 78 1770 79 46 6 -246 19 -1740 78 -863 34 -1572 64 -1574 66
-2 2 -2 5 1 8 3 3 801 41 1773 85 1535 69 1925 90 1734 90 -113 0 -3282 129
-3286 134 -3 2 10 7 28 10 19 3 808 39 1754 81 946 42 1731 77 1745 78 60 6
-257 20 -1735 78 -863 34 -1572 64 -1574 66 -2 1 -2 5 0 7 2 2 765 38 1694 80
930 42 1728 80 1775 84 l85 9 -70 2 c-242 6 -3257 130 -3261 134 -10 10 134
17 1806 92 927 41 1699 76 1715 78 71 6 -247 20 -1730 78 -863 34 -1572 63
-1574 65 -2 2 -2 6 0 8 2 2 774 38 1714 80 1583 70 1890 86 1810 93 -16 1
-745 30 -1620 63 -874 33 -1612 64 -1640 69 l-50 7 85 7 c47 4 834 41 1750 82
916 41 1679 76 1695 78 70 6 -243 21 -1730 78 -863 34 -1572 63 -1574 65 -2 2
-2 6 0 8 2 2 778 38 1724 80 946 42 1743 80 1770 84 30 4 -594 32 -1570 70
-1559 61 -1713 68 -1702 78 3 4 3133 150 3527 165 14 0 21 2 15 5 -5 2 -786
35 -1735 73 -949 39 -1766 72 -1815 76 l-91 5 -1107 -1581z"/>
<path d="M6896 1830 c-247 -353 -447 -642 -445 -644 2 -1 587 35 1299 80 712
46 1310 83 1329 83 118 2 -92 19 -1029 81 -580 39 -1056 73 -1059 75 -2 3 -2
7 0 9 2 1 506 35 1119 75 1086 70 1251 82 1220 88 -8 1 -465 32 -1015 68
-1081 70 -1121 73 -1090 85 11 5 526 40 1145 79 619 40 1138 75 1154 79 17 4
-418 37 -1027 77 -581 38 -1057 73 -1057 77 0 10 48 14 1205 88 594 38 1094
71 1110 73 60 6 -118 19 -1195 87 -602 38 -1122 72 -1155 75 l-60 5 -449 -640z"/>
<path d="M507 743 c-19 -27 -125 -178 -237 -338 -112 -160 -219 -311 -237
-337 l-35 -48 134 0 133 1 81 117 81 117 109 3 109 3 60 87 c33 47 61 90 63
94 2 4 -42 8 -98 8 -56 0 -100 4 -98 8 2 5 23 38 48 74 l45 66 61 6 c106 11
150 32 233 112 l76 73 -247 1 -246 0 -35 -47z"/>
<path d="M6420 735 c0 -9 9 -15 25 -15 24 0 25 -2 25 -70 0 -56 3 -70 15 -70
12 0 15 14 15 70 0 68 1 70 25 70 16 0 25 6 25 15 0 12 -14 15 -65 15 -51 0
-65 -3 -65 -15z"/>
<path d="M6577 743 c-4 -3 -7 -42 -7 -85 0 -63 3 -78 15 -78 12 0 15 14 16 63
l0 62 24 -60 c30 -80 48 -82 73 -8 l20 58 1 -57 c1 -45 4 -58 16 -58 12 0 15
16 15 85 0 77 -2 85 -19 85 -15 0 -24 -15 -42 -67 l-22 -67 -13 29 c-7 17 -20
47 -28 68 -14 34 -33 46 -49 30z"/>
<path d="M5862 700 c-55 -50 -114 -78 -191 -91 -62 -11 -62 -12 -116 -85 -30
-41 -55 -76 -55 -78 0 -3 36 -6 80 -8 l80 -3 -75 -112 -75 -113 -73 0 -72 -1
-67 -94 -68 -95 278 0 277 0 63 89 c34 49 62 91 62 94 0 4 -33 7 -74 9 l-73 3
178 257 c99 142 179 260 179 263 0 3 -48 5 -107 5 l-108 -1 -43 -39z"/>
<path d="M4238 693 c-15 -17 -416 -590 -452 -645 l-18 -28 118 0 119 1 230
330 c127 182 234 337 238 345 7 12 -10 14 -106 14 -96 0 -116 -3 -129 -17z"/>
<path d="M1165 557 c-204 -53 -378 -236 -379 -398 -1 -69 20 -104 77 -130 47
-21 136 -25 207 -8 176 40 355 221 376 380 9 63 -16 113 -68 140 -49 25 -148
32 -213 16z m55 -167 c32 -61 -109 -217 -188 -208 -72 8 0 160 103 216 33 18
73 14 85 -8z"/>
<path d="M2066 549 c-22 -5 -64 -24 -95 -41 l-55 -32 22 31 c12 17 22 34 22
37 0 3 -51 6 -114 6 l-115 0 -142 -202 c-78 -112 -162 -231 -187 -265 l-44
-63 119 0 119 0 96 138 c53 75 107 147 120 158 61 56 130 68 187 33 l34 -21
89 89 88 88 -23 21 c-27 27 -70 35 -121 23z"/>
<path d="M4638 541 c-216 -69 -390 -323 -322 -467 9 -19 30 -42 47 -51 44 -22
132 -13 196 20 l51 26 -16 -25 -16 -24 104 0 105 0 180 258 181 257 -116 3
c-90 2 -119 -1 -130 -12 -12 -12 -19 -11 -49 10 -45 30 -130 32 -215 5z m113
-141 c41 -22 8 -102 -71 -173 -79 -71 -150 -74 -150 -7 0 37 51 110 102 147
63 45 85 51 119 33z"/>
<path d="M2605 511 l-75 -39 20 28 c11 15 20 31 20 34 0 3 -51 6 -113 6 l-113
0 -131 -187 c-72 -104 -154 -221 -182 -260 l-52 -73 115 0 115 0 103 147 c131
188 157 215 199 211 18 -2 34 -8 36 -14 2 -6 -45 -80 -105 -165 -60 -85 -112
-161 -116 -167 -5 -9 21 -12 108 -12 l114 0 104 147 c142 204 152 215 197 211
25 -2 36 -8 35 -18 -1 -8 -51 -86 -112 -173 -62 -87 -112 -160 -112 -162 0 -3
51 -5 113 -5 l113 0 109 156 c172 245 180 261 153 319 -29 64 -137 74 -240 23
l-65 -33 -30 33 c-45 47 -106 46 -208 -7z"/>
<path d="M3362 513 c-74 -95 -202 -286 -212 -319 -17 -49 -5 -97 32 -133 45
-44 85 -54 202 -49 91 3 109 7 168 36 43 21 83 51 115 86 45 50 293 396 293
410 0 3 -51 6 -113 6 l-114 0 -123 -176 c-68 -96 -131 -179 -141 -185 -25 -13
-69 -11 -70 4 -3 28 6 43 95 170 51 73 101 144 110 160 l18 27 -115 0 -115 0
-30 -37z"/>
</g>
</svg>
